<svg width="457" height="396" viewBox="0 0 457 396" fill="none" xmlns="http://www.w3.org/2000/svg">
<path d="M113.222 186.277L107 180.099L213.973 72.3246L268.208 126.986L261.985 133.161L213.971 84.7698L113.222 186.277Z" fill="white"/>
<path d="M229.226 136.783L212.338 126.801L195.449 136.783L178.572 126.801L163.909 135.468L159.45 127.921L178.574 116.617L195.451 126.599L212.338 116.617L229.224 126.599L245.88 116.747L266.981 126.801L263.21 134.713L246.323 126.67L229.226 136.783Z" fill="white"/>
<path d="M116.978 47.4144C116.877 46.6745 116.743 45.5483 116.743 44.3168C116.743 33.3907 124.751 24.3153 135.175 22.7149C139.857 9.19177 152.502 0 166.956 0C175.601 0 183.935 3.39395 190.183 9.38935C203.936 7.5892 216.785 16.3507 220.787 29.1142C229.65 28.9254 236.984 36.2205 236.984 45.1466C236.984 46.0028 236.872 46.7492 236.782 47.3485L228.096 46.1674L228.113 46.0555C228.159 45.7547 228.219 45.4583 228.219 45.1466C228.219 41.138 224.996 37.8779 221.038 37.8779C220.383 37.8779 219.679 38.0096 218.818 38.2906L213.863 39.9196L213.113 34.7584C211.512 23.7796 200.751 15.9182 189.592 18.3835L187.096 18.9324L185.39 17.0334C180.661 11.7779 173.942 8.76369 166.954 8.76369C155.475 8.76369 145.532 16.6295 142.777 27.8871L141.96 31.2283L138.252 31.2217C131.322 31.2261 125.509 37.0964 125.509 44.3124C125.509 44.8502 125.555 45.4364 125.662 46.2157L116.978 47.4144Z" fill="white"/>
<path d="M388 247.609H242.536L315.276 174.328L388 247.609ZM263.589 238.843H366.949L315.276 186.771L263.589 238.843Z" fill="white"/>
<path d="M283.725 83.9553L276.66 78.7612C279.402 75.0336 283.461 72.5156 287.911 71.6748C291.88 60.8936 302.091 53.6051 313.733 53.6051C320.659 53.6051 327.341 56.268 332.419 60.9836C344.985 59.5852 356.065 68.3554 357.968 80.6909L349.305 82.0257C348.039 73.8108 340.335 68.0854 331.837 69.9536L329.346 70.5025L327.64 68.6079C324.068 64.6454 318.999 62.371 313.735 62.371C305.083 62.371 297.586 68.3027 295.503 76.7942L294.686 80.1333H291.248C288.236 80.1333 285.507 81.5273 283.725 83.9553Z" fill="white"/>
<path d="M355.125 82.4537H346.39L353.957 80.3045C354.298 80.2079 354.611 80.1223 354.93 80.0652L356.218 79.8369V82.2408L355.125 82.4537Z" fill="white"/>
<path d="M145.921 246.314L139.701 240.139L213.17 166.115L240.765 193.914L317.871 116.22L369.792 168.539L363.568 174.716L317.871 128.663L240.765 206.357L213.17 178.558L145.921 246.314Z" fill="white"/>
<path d="M182.132 67.4049H147.455V76.1707H182.132V67.4049Z" fill="white"/>
<path d="M137.543 67.4049H123.921V76.1707H137.543V67.4049Z" fill="white"/>
<path d="M265.117 29.966H251.498V38.7319H265.117V29.966Z" fill="white"/>
<path d="M293.608 29.966H279.98V38.7319H293.608V29.966Z" fill="white"/>
<path d="M322.092 29.966H308.468V38.7319H322.092V29.966Z" fill="white"/>
<g clip-path="url(#clip0_3_70)">
<path d="M124 321.166L109.65 295.334H118.834L104.484 269.5H113.666L87.8338 223L72.0455 251.416L62 233.334L51.9544 251.418L36.1661 223L10.3338 269.5H19.5192L5.1677 295.334H14.353L0 321.166H25.8338V339.25H36.1677V331.5H56.8338V347H67.1677V331.5H87.8354V339.25H98.1677V321.166H124ZM87.8338 244.277L96.1031 259.166H79.5584L87.8338 244.277ZM62 254.611L70.2692 269.5H53.7276L62 254.611ZM57.1717 279.834H66.8251L75.4385 295.334H48.5615L57.1717 279.834ZM36.1661 244.277L44.4354 259.166H27.8923L36.1661 244.277ZM37.3147 310.834H17.5584L26.1717 295.334H36.7428L31 305.666H40.1853L37.3147 310.834ZM22.7261 285L31.3394 269.5H40.9944L41.4516 270.323L36.1692 279.834H45.3546L42.4809 285H22.7261ZM43.3954 321.166L52.0087 305.666H71.9913L80.6046 321.166H43.3954ZM78.6501 279.834H87.8338L82.5452 270.32L83.0056 269.5H92.6574L101.271 285H81.516L78.6501 279.834ZM83.8162 305.666H93L87.2588 295.334H97.8236L106.437 310.834H86.6838L83.8162 305.666Z" fill="white"/>
</g>
<g clip-path="url(#clip1_3_70)">
<path d="M457 361.166L442.65 335.334H451.834L437.484 309.5H446.666L420.834 263L405.046 291.416L395 273.334L384.954 291.418L369.166 263L343.334 309.5H352.519L338.168 335.334H347.353L333 361.166H358.834V379.25H369.168V371.5H389.834V387H400.168V371.5H420.835V379.25H431.168V361.166H457ZM420.834 284.277L429.103 299.166H412.558L420.834 284.277ZM395 294.611L403.269 309.5H386.728L395 294.611ZM390.172 319.834H399.825L408.438 335.334H381.562L390.172 319.834ZM369.166 284.277L377.435 299.166H360.892L369.166 284.277ZM370.315 350.834H350.558L359.172 335.334H369.743L364 345.666H373.185L370.315 350.834ZM355.726 325L364.339 309.5H373.994L374.452 310.323L369.169 319.834H378.355L375.481 325H355.726ZM376.395 361.166L385.009 345.666H404.991L413.605 361.166H376.395ZM411.65 319.834H420.834L415.545 310.32L416.006 309.5H425.657L434.271 325H414.516L411.65 319.834ZM416.816 345.666H426L420.259 335.334H430.824L439.437 350.834H419.684L416.816 345.666Z" fill="white"/>
</g>
<g clip-path="url(#clip2_3_70)">
<path d="M283 370.166L268.65 344.334H277.834L263.484 318.5H272.666L246.834 272L231.046 300.416L221 282.334L210.954 300.418L195.166 272L169.334 318.5H178.519L164.168 344.334H173.353L159 370.166H184.834V388.25H195.168V380.5H215.834V396H226.168V380.5H246.835V388.25H257.168V370.166H283ZM246.834 293.277L255.103 308.166H238.558L246.834 293.277ZM221 303.611L229.269 318.5H212.728L221 303.611ZM216.172 328.834H225.825L234.438 344.334H207.562L216.172 328.834ZM195.166 293.277L203.435 308.166H186.892L195.166 293.277ZM196.315 359.834H176.558L185.172 344.334H195.743L190 354.666H199.185L196.315 359.834ZM181.726 334L190.339 318.5H199.994L200.452 319.323L195.169 328.834H204.355L201.481 334H181.726ZM202.395 370.166L211.009 354.666H230.991L239.605 370.166H202.395ZM237.65 328.834H246.834L241.545 319.32L242.006 318.5H251.657L260.271 334H240.516L237.65 328.834ZM242.816 354.666H252L246.259 344.334H256.824L265.437 359.834H245.684L242.816 354.666Z" fill="white"/>
</g>
<defs>
<clipPath id="clip0_3_70">
<rect width="124" height="124" fill="white" transform="translate(0 223)"/>
</clipPath>
<clipPath id="clip1_3_70">
<rect width="124" height="124" fill="white" transform="translate(333 263)"/>
</clipPath>
<clipPath id="clip2_3_70">
<rect width="124" height="124" fill="white" transform="translate(159 272)"/>
</clipPath>
</defs>
</svg>
